<?xml version="1.0" encoding="UTF-8" standalone="no" ?>
<!DOCTYPE svg PUBLIC "-//W3C//DTD SVG 1.1//EN" "http://www.w3.org/Graphics/SVG/1.1/DTD/svg11.dtd">
<svg xmlns="http://www.w3.org/2000/svg" xmlns:xlink="http://www.w3.org/1999/xlink" version="1.1" width="1080" height="1080" viewBox="0 0 1080 1080" xml:space="preserve">
<desc>Created with Fabric.js 5.2.4</desc>
<defs>
</defs>
<rect x="0" y="0" width="100%" height="100%" fill="transparent"></rect>
<g transform="matrix(0 0 0 0 0 0)" id="431741c4-ba1d-492f-89b0-958eeb1bba12"  >
</g>
<g transform="matrix(1 0 0 1 540 540)" id="3680faf0-421e-4ddb-a272-abc01443064e"  >
<rect style="stroke: none; stroke-width: 1; stroke-dasharray: none; stroke-linecap: butt; stroke-dashoffset: 0; stroke-linejoin: miter; stroke-miterlimit: 4; fill: rgb(255,255,255); fill-rule: nonzero; opacity: 1; visibility: hidden;" vector-effect="non-scaling-stroke"  x="-540" y="-540" rx="0" ry="0" width="1080" height="1080" />
</g>
<g transform="matrix(0 0 0 0 160.9 290.72)"  >
<g style=""   >
</g>
</g>
<g transform="matrix(0 0 0 0 160.9 290.72)"  >
<g style=""   >
</g>
</g>
<g transform="matrix(0 0 0 0 160.9 290.72)"  >
<g style=""   >
</g>
</g>
<g transform="matrix(0 0 0 0 160.9 290.72)"  >
<g style=""   >
</g>
</g>
<g transform="matrix(2.95 0 0 2.24 608.17 501.95)"  >
<path style="stroke: rgb(157,146,170); stroke-width: 5; stroke-dasharray: none; stroke-linecap: butt; stroke-dashoffset: 0; stroke-linejoin: miter; stroke-miterlimit: 4; fill: rgb(157,146,170); fill-rule: nonzero; opacity: 1;" vector-effect="non-scaling-stroke"  transform=" translate(-50, -50)" d="M 94.75 50 C 94.75 56.213 89.514 61.25 83.054 61.25 L 16.946 61.25 C 10.486 61.25 5.25 56.213 5.25 50 L 5.25 50 C 5.25 43.787 10.486 38.75 16.945999999999998 38.75 L 83.053 38.75 C 89.514 38.75 94.75 43.787 94.75 50 L 94.75 50 z" stroke-linecap="round" />
</g>
<g transform="matrix(0 0 0 0 160.9 290.72)"  >
<g style=""   >
</g>
</g>
<g transform="matrix(0 0 0 0 160.9 290.72)"  >
<g style=""   >
</g>
</g>
<g transform="matrix(0 0 0 0 160.9 290.72)"  >
<g style=""   >
</g>
</g>
<g transform="matrix(0 0 0 0 160.9 290.72)"  >
<g style=""   >
</g>
</g>
<g transform="matrix(0 -29.43 46.79 0 346.31 722.49)"  >
<path style="stroke: rgb(157,146,170); stroke-width: 0.86; stroke-dasharray: none; stroke-linecap: butt; stroke-dashoffset: 0; stroke-linejoin: miter; stroke-miterlimit: 4; fill: rgb(157,146,170); fill-rule: nonzero; opacity: 1;"  transform=" translate(-32, -8)" d="M 34.5 5 L 25.707 5 L 27.854 2.854 C 27.980472018827488 2.7275279811725106 28.029864964698454 2.5431909976465645 27.983572992939692 2.3704270070603095 C 27.937281021180926 2.1976630164740545 27.802336983525947 2.0627189788190745 27.629572992939693 2.0164270070603094 C 27.456809002353438 1.9701350353015439 27.27247201882749 2.0195279811725104 27.146 2.146 L 24.146 5.146 C 24.09962041531425 5.192898170823695 24.062624350121844 5.248222561891238 24.037 5.309 C 23.986982530949508 5.431421525983431 23.986982530949508 5.568578474016569 24.037 5.691 C 24.062624350121844 5.751777438108762 24.09962041531425 5.807101829176305 24.146 5.854 L 27.146 8.854 C 27.27247201882749 8.98047201882749 27.456809002353438 9.029864964698454 27.629572992939693 8.98357299293969 C 27.802336983525947 8.937281021180924 27.937281021180926 8.802336983525946 27.983572992939692 8.62957299293969 C 28.029864964698454 8.456809002353435 27.980472018827488 8.27247201882749 27.854 8.145999999999999 L 25.707 6 L 34.5 6 C 36.984139086788275 6.002755564479672 38.99724443552033 8.015860913211727 39 10.5 L 39 13.5 C 39 13.776142374915397 39.223857625084605 14 39.5 14 C 39.776142374915395 14 40 13.776142374915397 40 13.5 L 40 10.5 C 39.99669319508521 7.463804654238844 37.53619534576116 5.003306804914792 34.5 5 Z" stroke-linecap="round" />
</g>
<g transform="matrix(0 0 0 0 160.9 290.72)"  >
<g style=""   >
</g>
</g>
<g transform="matrix(0 0 0 0 160.9 290.72)"  >
<g style=""   >
</g>
</g>
<g transform="matrix(0 0 0 0 160.9 290.72)"  >
<g style=""   >
</g>
</g>
<g transform="matrix(0 0 0 0 160.9 290.72)"  >
<g style=""   >
</g>
</g>
<g transform="matrix(0 0 0 0 -3847.81 -3885.28)"  >
<g style=""   >
</g>
</g>
<g transform="matrix(0 0 0 0 -3847.81 -3885.28)"  >
<g style=""   >
</g>
</g>
<g transform="matrix(0 0 0 0 -3847.81 -3885.28)"  >
<g style=""   >
</g>
</g>
<g transform="matrix(0 0 0 0 -3847.81 -3885.28)"  >
<g style=""   >
</g>
</g>
<g transform="matrix(0 0 0 0 -3847.81 -3885.28)"  >
<g style=""   >
</g>
</g>
<g transform="matrix(0 0 0 0 -3847.81 -3885.28)"  >
<g style=""   >
</g>
</g>
<g transform="matrix(0 0 0 0 -3847.81 -3885.28)"  >
<g style=""   >
</g>
</g>
<g transform="matrix(0 0 0 0 -3847.81 -3885.28)"  >
<g style=""   >
</g>
</g>
<g transform="matrix(2.54 0 0 2.24 794.73 502.43)"  >
<path style="stroke: rgb(157,146,170); stroke-width: 5; stroke-dasharray: none; stroke-linecap: butt; stroke-dashoffset: 0; stroke-linejoin: miter; stroke-miterlimit: 4; fill: rgb(157,146,170); fill-rule: nonzero; opacity: 1;" vector-effect="non-scaling-stroke"  transform=" translate(-50, -50)" d="M 94.75 50 C 94.75 56.213 89.514 61.25 83.054 61.25 L 16.946 61.25 C 10.486 61.25 5.25 56.213 5.25 50 L 5.25 50 C 5.25 43.787 10.486 38.75 16.945999999999998 38.75 L 83.053 38.75 C 89.514 38.75 94.75 43.787 94.75 50 L 94.75 50 z" stroke-linecap="round" />
</g>
<g transform="matrix(2.95 0 0 2.24 900.11 502.9)"  >
<path style="stroke: rgb(157,146,170); stroke-width: 5; stroke-dasharray: none; stroke-linecap: butt; stroke-dashoffset: 0; stroke-linejoin: miter; stroke-miterlimit: 4; fill: rgb(157,146,170); fill-rule: nonzero; opacity: 1;" vector-effect="non-scaling-stroke"  transform=" translate(-50, -50)" d="M 94.75 50 C 94.75 56.213 89.514 61.25 83.054 61.25 L 16.946 61.25 C 10.486 61.25 5.25 56.213 5.25 50 L 5.25 50 C 5.25 43.787 10.486 38.75 16.945999999999998 38.75 L 83.053 38.75 C 89.514 38.75 94.75 43.787 94.75 50 L 94.75 50 z" stroke-linecap="round" />
</g>
</svg>